<?xml version="1.0" encoding="UTF-8"?>
<!DOCTYPE svg PUBLIC "-//W3C//DTD SVG 1.1//EN" "http://www.w3.org/Graphics/SVG/1.1/DTD/svg11.dtd">
<!-- Creator: CorelDRAW 2019 (64-Bit) -->
<svg xmlns="http://www.w3.org/2000/svg" xml:space="preserve" width="347.916mm" height="340.916mm" version="1.1" style="shape-rendering:geometricPrecision; text-rendering:geometricPrecision; image-rendering:optimizeQuality; fill-rule:evenodd; clip-rule:evenodd"
viewBox="0 0 29221.22 28633.34"
 xmlns:xlink="http://www.w3.org/1999/xlink"
 xmlns:xodm="http://www.corel.com/coreldraw/odm/2003">
 <defs>
  <style type="text/css">
   <![CDATA[
    .fil0 {fill:#1F1E1F;fill-rule:nonzero}
    .fil1 {fill:#4D4D4D;fill-rule:nonzero}
   ]]>
  </style>
 </defs>
 <g id="Layer_x0020_1">
  <metadata id="CorelCorpID_0Corel-Layer"/>
  <path class="fil0" d="M25669.33 20157.95c102.22,3.55 204.74,3.55 307.26,0 -0.6,69.33 -2.07,138.67 -3.55,208.29 -102.53,-1.48 -204.74,-1.78 -306.96,1.18 -0.6,-69.92 0.29,-139.85 3.26,-209.48z"/>
  <g id="_1398950834944">
   <path class="fil0" d="M2449.83 20185.21c106.36,-11.56 213.33,-4.15 320,-5.92 -41.48,496.59 -60.74,994.37 -65.19,1492.44 -97.18,0.29 -194.37,0 -291.55,1.18 2.67,-58.07 5.33,-115.85 6.22,-173.33 -88.59,99.55 -200.3,195.85 -341.33,197.63 -202.37,28.44 -419.26,-88.89 -488.59,-284.15 -100.75,-285.33 -1.49,-654.81 275.55,-802.96 179.56,-94.23 388.44,-79.12 583.7,-63.71 2.07,-120.59 6.22,-240.89 1.19,-361.19zm-402.67 606.52l0 0c-151.7,87.7 -213.63,279.7 -190.22,446.52 12.44,113.77 101.63,218.07 217.78,234.07 139.25,27.85 270.51,-80 309.92,-208.89 50.67,-163.85 41.19,-338.66 48.3,-508.14 -128,-22.52 -268.74,-29.34 -385.78,36.44z"/>
  </g>
  <g id="_1398950834304">
   <path class="fil0" d="M9853.36 20178.98c102.52,0.6 205.34,0.89 308.15,-1.48 -27.25,498.37 -53.92,996.74 -62.51,1496 -94.82,-2.07 -189.63,-2.07 -284.15,0 1.78,-57.78 3.86,-114.96 4.44,-172.15 -92.74,90.96 -195.26,192 -334.51,195.26 -206.82,31.41 -432.6,-87.41 -499.26,-290.37 -86.82,-273.48 -8.3,-622.22 247.7,-778.37 183.41,-115.55 408.89,-95.4 615.11,-82.96 2.66,-122.08 5.92,-244.15 5.03,-365.93zm-471.7 658.67l0 0c-112.89,106.37 -147.55,274.96 -121.48,424 15.41,88.89 78.52,170.07 166.22,197.92 122.08,51.86 272,-17.18 328,-133.93 92.74,-173.62 63.11,-377.18 77.04,-566.21 -150.82,-37.93 -329.19,-30.23 -449.78,78.22z"/>
  </g>
  <path class="fil0" d="M16624.91 20199.73c201.48,-82.67 423.1,-44.14 631.7,-14.22 8.3,87.41 12.45,175.4 13.04,263.7 -123.56,-54.82 -262.81,-79.41 -396.45,-55.11 -81.48,22.22 -169.47,97.18 -143.7,191.11 41.48,111.71 153.78,167.71 234.96,247.11 90.67,88.59 197.93,162.37 270.22,268.74 106.37,142.52 76.15,364.45 -61.04,476.74 -150.81,131.55 -364.74,130.37 -552.59,114.07 -85.04,-14.82 -178.37,-16.29 -254.82,-56.59 -33.48,-76.45 -10.96,-170.37 -26.37,-252.74 172.15,50.96 363.56,130.37 540.15,50.96 93.63,-36.15 115.55,-168.59 49.48,-239.71 -153.18,-172.15 -361.78,-292.44 -490.67,-486.52 -106.96,-181.93 -8.59,-433.78 186.08,-507.56z"/>
  <g id="_1398950836480">
   <path class="fil0" d="M23964.15 20179.58c105.19,-0.6 210.67,-0.29 316.15,-0.29 -38.22,495.7 -61.04,993.18 -64.3,1490.66 -97.48,3.26 -194.37,2.07 -291.55,2.37 2.37,-57.78 3.86,-115.85 4.74,-173.33 -91.55,111.11 -220.44,205.93 -371.26,199.7 -206.51,19.26 -417.48,-119.7 -469.63,-322.66 -77.04,-271.71 16.29,-608 269.34,-755.56 181.63,-106.96 400,-89.18 601.47,-74.07 3.86,-122.37 6.53,-244.75 5.04,-366.82zm-327.7 578.67l0 0c-199.7,54.52 -296,281.78 -269.34,474.07 9.48,105.48 84.15,205.63 188.45,232.89 122.67,41.78 260.15,-32.59 314.96,-145.18 78.82,-144.89 55.11,-314.37 73.78,-471.7 1.77,-37.63 12.14,-100.74 -42.97,-99.26 -87.7,-16.29 -178.96,-13.63 -264.89,9.19z"/>
  </g>
  <path class="fil0" d="M18776.31 20357.95c93.93,-28.14 190.81,-43.85 287.11,-63.11 -3.26,90.96 -4.75,182.52 -3.56,273.78 89.78,-1.49 179.85,-1.49 269.93,0.89 -0.89,70.22 -2.96,140.74 -15.12,210.66 -88.59,1.18 -178.37,-10.37 -265.48,5.33 -17.18,139.56 -12.73,280.89 -26.36,421.04 -4.75,77.04 -15.41,168 35.26,233.18 71.7,67.26 173.63,23.71 256,8.3 -14.52,72.89 -29.04,146.37 -40,220.45 -118.22,34.37 -244.15,37.33 -365.33,22.22 -108.15,-15.11 -194.67,-111.41 -192.89,-221.63 -2.67,-230.52 29.63,-459.85 29.63,-690.37 -51.86,-0.89 -102.82,-0.6 -154.08,-1.18 4.15,-69.64 7.11,-138.97 9.78,-208.3 55.71,-1.18 111.71,-2.07 167.71,-4.15 2.66,-69.33 5.92,-138.07 7.41,-207.11z"/>
  <g id="_1398950836576">
   <path class="fil0" d="M27752.59 20549.36c234.07,-46.23 516.74,6.22 658.96,214.52 136.29,218.07 115.26,520.89 -38.22,725.04 -113.18,150.21 -308.15,216 -491.26,210.37 -183.7,5.63 -379.25,-62.82 -490.67,-215.11 -148.74,-206.82 -141.33,-504.89 2.07,-712.3 83.26,-119.7 218.97,-192 359.11,-222.51zm16.29 240.59l0 0c-172.45,89.48 -195.26,315.26 -159.4,485.63 39.41,165.33 239.7,255.11 391.41,182.21 144.59,-58.07 195.26,-228.44 192.59,-371.26 4.15,-121.18 -46.22,-256.59 -165.33,-305.77 -83.85,-23.11 -178.96,-25.78 -259.26,9.18z"/>
  </g>
  <path class="fil0" d="M4134.56 20566.25c102.52,-9.19 205.33,-3.56 308.15,-5.93 -5.63,194.37 -20.15,388.44 -35.86,582.52 -4.15,85.04 -7.7,185.48 57.19,251.26 118.81,98.37 321.78,68.74 402.96,-64.3 65.18,-108.14 67.26,-239.4 72.29,-361.78 0.3,-136.3 21.64,-271.4 17.19,-407.7 103.4,1.48 206.81,-0.89 310.21,3.55 -31.7,366.52 -53.03,734.52 -45.33,1102.52 -98.96,8.59 -198.22,4.44 -297.19,8 -4.44,-57.78 -9.48,-114.66 -15.4,-171.55 -64.29,125.93 -204.45,191.7 -341.63,194.37 -135.71,10.37 -287.71,-6.82 -387.56,-109.03 -89.78,-93.34 -80.29,-233.19 -72.59,-352.3 18.07,-222.51 32,-446.22 27.56,-669.62z"/>
  <path class="fil0" d="M6715.29 20598.54c239.12,-55.7 497.19,-101.33 736.6,-24 117.04,35.56 186.37,154.08 172.74,274.07 -18.07,272.6 -36.15,545.78 -31.41,819.56 -106.07,4.44 -212.74,8.89 -318.51,-2.07 30.82,-182.52 29.04,-368.3 39.7,-552.3 -138.67,62.22 -300.14,71.41 -426.37,159.71 -85.92,52.44 -80,194.37 14.52,234.67 91.85,32.88 191.71,7.41 285.92,-1.19 -19.26,60.45 -37.04,122.37 -60.14,181.93 -145.18,6.22 -301.63,32.89 -437.93,-32.29 -110.82,-53.93 -164.15,-185.48 -154.67,-303.41 8.59,-101.63 81.18,-184 164.15,-236.14 163.26,-96.89 359.41,-104.3 533.33,-172.45 72.59,-23.7 106.37,-121.18 57.19,-181.03 -59.86,-66.96 -157.34,-53.04 -237.63,-52.15 -126.82,0.88 -244.44,52.15 -365.92,81.48 8.89,-65.18 19.26,-129.78 28.44,-194.37z"/>
  <path class="fil0" d="M11537.81 20561.5c102.52,-0.59 205.33,0 308.14,-1.18 -8.89,244.44 -52.44,488.59 -34.37,733.33 19.26,139.86 193.49,185.19 309.93,145.19 110.51,-31.71 180.44,-141.04 195.26,-250.67 33.18,-205.93 29.93,-415.41 32.29,-623.41 105.19,-5.92 210.96,-3.85 316.45,-2.37 -32.6,368.89 -52.44,739.26 -54.52,1109.63 -99.85,-1.48 -199.71,5.63 -298.67,-6.22 2.66,-55.11 4.74,-109.33 6.52,-163.85 -66.37,90.96 -157.03,168 -271.41,186.07 -163.55,23.7 -362.07,23.11 -479.4,-112.59 -82.37,-93.93 -66.07,-227.56 -61.63,-342.52 10.37,-224 32.89,-447.41 31.41,-671.41z"/>
  <path class="fil0" d="M14115.58 20596.76c226.67,-50.96 466.96,-93.33 695.99,-34.37 106.07,23.41 209.77,109.63 205.62,226.96 2.38,294.52 -32.59,588.74 -31.11,883.55 -102.52,-1.18 -205.03,-1.18 -307.26,0 10.96,-190.22 31.71,-379.85 33.78,-570.37 -130.96,80.6 -295.4,80 -422.51,167.11 -68.15,38.81 -81.78,138.07 -38.52,200 84.74,89.19 221.93,48.89 328.88,34.07 -13.63,61.93 -29.63,123.26 -49.48,183.71 -135.7,8.29 -278.52,29.62 -409.47,-16.6 -186.67,-63.4 -250.08,-332.74 -117.64,-476.14 117.33,-127.71 297.48,-159.11 458.37,-199.41 84.43,-22.52 193.77,-32.6 239.7,-118.82 38.81,-69.33 -26.08,-148.14 -95.41,-159.4 -177.47,-28.14 -353.47,21.63 -519.39,79.4 4.74,-67.55 14.81,-134.22 28.44,-199.7z"/>
  <path class="fil0" d="M20632 20560.61c102.52,0.89 205.34,0.89 308.44,0 -8.59,244.44 -53.63,488 -34.66,732.74 18.37,138.67 189.63,184.89 306.07,146.37 117.63,-31.11 187.56,-149.03 201.19,-264 32.29,-202.37 25.18,-408.3 31.11,-612.44 106.36,-0.89 213.63,-9.19 319.7,5.63 -32.29,150.22 -23.7,305.48 -36.74,458.37 -17.78,214.22 -21.93,429.63 -22.22,644.74 -97.48,0 -194.66,-0.89 -291.85,2.37 -1.78,-57.78 -2.07,-114.96 -0.3,-172.14 -65.48,91.56 -156.74,166.81 -270.51,185.48 -157.04,22.22 -342.82,25.19 -463.71,-94.82 -106.37,-98.96 -81.18,-257.48 -75.85,-387.26 8.3,-215.41 27.85,-429.92 29.33,-645.04z"/>
  <path class="fil0" d="M25649.77 20569.21c106.97,-16 215.11,-5.33 322.96,-7.7 -32.89,369.48 -38.22,740.44 -41.18,1111.7 -108.74,-2.07 -217.48,-1.48 -325.93,0 26.96,-367.4 51.86,-735.4 44.14,-1104z"/>
  <g id="_1398950841344">
   <g>
    <path class="fil1" d="M12181.95 21.99c860.74,-54.81 1731.56,-11.56 2574.22,180.15 80.59,20.75 162.37,38.22 246.22,40 62.81,32.88 129.77,57.78 199.11,74.67 982.52,277.33 1915.26,778.36 2630.22,1514.36 578.37,580.45 986.96,1317.33 1220.44,2099.85 148.75,539.26 232.89,1098.07 228.75,1658.07 13.93,704.3 -120.89,1410.67 -386.67,2062.52 -314.37,781.63 -805.04,1478.52 -1351.7,2114.37 -845.34,-454.81 -1603.85,-1070.81 -2225.47,-1801.77 -253.93,-310.81 -502.53,-635.56 -655.7,-1009.48 -33.18,-55.41 27.25,-96 55.7,-136.59 332.74,-393.78 600,-859.26 683.26,-1373.92 93.33,-610.67 5.92,-1270.22 -346.37,-1789.33 -210.07,-307.26 -485.93,-596.44 -847.99,-715.56 -377.48,-123.85 -779.26,-92.14 -1169.78,-93.62 -846.22,43.55 -1641.77,480.29 -2196.15,1110.81 -699.25,761.78 -1077.63,1771.25 -1212.44,2785.78 -1224.89,-269.93 -2448.3,-547.85 -3671.4,-825.48 13.04,-133.04 50.96,-261.64 80.89,-391.41 223.11,-910.23 550.52,-1802.66 1043.55,-2603.26 444.45,-726.81 1035.85,-1367.99 1745.78,-1841.77 988.14,-666.08 2176.29,-979.56 3355.54,-1058.38zm-878.81 632l0 0c-88.6,45.33 -181.04,88 -251.56,160.29 644.15,-194.66 1328.29,-168.3 1987.84,-80 1069.92,156.45 2113.47,488.59 3079.69,973.34 496,253.33 973.34,550.21 1390.81,921.18 307.26,274.37 583.11,594.96 750.81,974.81 5.33,-406.52 -161.18,-799.4 -384.59,-1132.45 -336.3,-490.96 -814.52,-866.37 -1322.08,-1167.4 -970.07,-562.07 -2073.77,-886.81 -3190.5,-966.52 -696.88,-42.37 -1423.11,9.18 -2060.44,316.74z"/>
   </g>
   <path class="fil1" d="M9998.55 10260.2c671.7,-226.38 1333.63,-481.18 1989.63,-749.92 311.41,398.22 634.07,788.44 985.77,1152 488.3,502.21 1027.55,952.88 1599.39,1356.74 -363.25,198.81 -744.88,363.55 -1122.65,532.74 -1983.41,858.95 -4063.41,1475.25 -6161.48,1982.8 -99.26,26.37 -203.85,35.85 -297.18,81.77 2342.22,1.49 4684.14,-1.18 7026.36,-2.66 13.63,2.96 41.19,9.19 55.11,12.45 213.33,1024.29 404.14,2053.92 610.36,3080.28 25.19,168 77.33,332.45 87.11,502.82 -4923.54,-11.56 -9847.38,-6.22 -14770.93,-18.37 -3.26,-1104.3 174.22,-2237.63 705.78,-3218.37 432,-804.74 1101.92,-1461.92 1866.96,-1951.69 1032.88,-664 2196.44,-1084.74 3356.14,-1467.85 1352.89,-442.97 2724.74,-825.48 4069.62,-1292.74z"/>
   <path class="fil1" d="M5635.3 24327.43c6258.36,-2.07 12517.01,0.29 18775.37,-1.18 -566.52,826.36 -1314.07,1517.33 -2135.4,2085.92 -974.52,669.34 -2058.96,1169.78 -3184.29,1526.52 -1287.41,409.19 -2632,631.11 -3980.44,684.74 -1557.62,53.93 -3131.84,-108.45 -4623.09,-574.51 -1209.48,-376.3 -2368,-959.41 -3325.63,-1795.85 -618.67,-543.71 -1147.26,-1193.48 -1526.52,-1925.62z"/>
  </g>
  <g id="_1398950841152">
   <path class="fil1" d="M15140.17 197.4c1041.48,-214.22 2117.33,-246.22 3173.03,-131.85 1151.7,135.41 2293.93,526.81 3211.85,1249.48 794.07,613.03 1399.99,1445.03 1822.22,2349.92 336.29,714.96 567.41,1475.84 732.74,2247.1 -1070.23,251.56 -2144.89,485.93 -3217.48,728.3 -156.14,27.85 -306.96,80.89 -464.59,99.26 -129.78,-1046.22 -564.15,-2082.96 -1345.78,-2808.59 -233.48,-782.52 -642.07,-1519.4 -1220.44,-2099.85 -714.96,-736 -1647.7,-1237.03 -2630.22,-1514.36 -69.33,-16.89 -136.3,-41.78 -199.11,-74.67 44.14,-18.96 90.07,-35.56 137.78,-44.74z"/>
   <g>
    <path class="fil1" d="M10840.03 3956.5c554.37,-630.52 1349.93,-1067.26 2196.15,-1110.81 390.52,1.48 792.3,-30.23 1169.78,93.62 362.06,119.11 637.92,408.3 847.99,715.56 -427.56,386.96 -677.32,948.44 -714.36,1520.89 -39.11,404.15 40,810.37 176.59,1190.22 56.89,154.67 111.4,312.3 200.89,452.15 -28.45,40.59 -88.89,81.18 -55.7,136.59 153.18,373.92 401.78,698.67 655.7,1009.48 621.62,730.96 1380.14,1346.96 2225.47,1801.77 970.96,579.26 2026.96,1004.15 3110.81,1318.82 1086.52,319.7 2197.93,542.22 3299.25,803.26 732.45,173.33 1461.93,372.74 2156.74,665.48 528.6,225.77 1034.97,515.55 1466.97,897.47 338.96,298.67 626.07,654.52 853.03,1045.04 306.96,528.59 499.85,1116.74 618.97,1714.66 128.88,650.37 176.29,1315.26 172.74,1977.48 -1522.96,11.56 -3046.52,2.37 -4569.48,5.63 -3192.89,1.78 -6385.77,-2.07 -9578.65,2.96 -81.78,-306.96 -130.38,-622.51 -200.3,-932.44 -147.55,-720.6 -296,-1440.89 -444.73,-2161.18 -31.71,-161.78 -73.48,-322.07 -94.52,-485.93 2621.03,-6.52 5242.36,2.67 7863.39,-0.89 -101.63,-39.11 -210.37,-49.48 -316.44,-67.26 -1189.04,-221.33 -2378.97,-452.44 -3538.96,-798.22 -1330.96,-389.04 -2622.22,-944.28 -3768,-1731.84 -571.84,-403.85 -1111.1,-854.52 -1599.39,-1356.74 -351.71,-363.56 -674.37,-753.78 -985.77,-1152 -269.34,-377.78 -543.41,-755.56 -751.11,-1171.85 -694.82,-1334.22 -842.67,-2944.89 -397.04,-4381.92zm15117.6 9317.91l0 0c465.18,133.92 869.93,425.18 1206.81,766.22 357.04,372.15 643.85,816 813.93,1303.99 54.52,-68.44 40.29,-161.77 47.11,-242.96 18.37,-340.74 -129.49,-670.22 -338.37,-932.14 -253.34,-310.82 -589.93,-546.96 -956.74,-704.6 -244.45,-101.92 -504.89,-198.21 -772.74,-190.51z"/>
   </g>
  </g>
 </g>
</svg>
